<svg xmlns="http://www.w3.org/2000/svg" width="100" height="100" fill="none" viewBox="0 0 163.64218 188.61912">
  <style>@keyframes grow{0%{opacity:0}10%{opacity:1}70%{stroke-dasharray:700px 0}}@media (prefers-reduced-motion){.path1{animation:none!important;stroke-dasharray:unset!important}}.path1{stroke-dashoffset:1px;stroke-dasharray:0 700px;animation:grow 8s ease-in-out forwards infinite;transform-origin:center;stroke:#303030;animation-delay:0s}@media (prefers-color-scheme:dark){.path1{stroke:#fdfdfd}}</style>
  <!-- 改用几何 clipPath 裁切，避免浏览器在尖角处叠加 alpha mask 抗锯齿时出现白缝。 -->
  <clipPath id="clip0_novcky_1" clipPathUnits="userSpaceOnUse">
    <path fill="#fff" d="M 10.507549 96.979532 L 8.957255 96.807272 Q 0 94.395702 0 79.237272 L 0.172255 75.275412 Q 1.03353 45.992082 9.301765 30.316861 Q 12.057843 25.665979 14.124901 25.493724 Q 16.19196 25.493724 18.259019 27.388528 Q 22.048626 30.66137 22.048626 33.589704 Q 22.048626 36.173527 19.981568 40.479912 Q 16.88098 46.853352 13.091372 66.318152 Q 12.574607 71.830312 12.402353 75.792172 L 12.574607 75.964432 Q 13.263627 74.069622 15.158431 71.141292 Q 17.053235 68.040702 22.220881 58.394432 Q 30.489116 42.719232 35.139998 34.278723 Q 37.896076 29.627841 40.996664 29.627841 Q 44.097252 29.627841 46.336566 32.03941 Q 50.987448 35.829017 51.331958 44.614042 Q 52.709997 57.016392 56.671859 62.873062 Q 58.222153 65.112372 60.116957 65.112372 L 61.150486 64.940122 Q 69.935486 58.738942 82.682375 43.925022 Q 84.749435 41.857962 89.400315 41.513452 Q 90.950605 41.513452 92.156395 42.202472 Q 93.534425 42.891492 94.223445 44.097272 Q 95.084725 45.130802 95.084725 46.336592 Q 94.912465 47.542372 94.223445 48.575902 Q 78.892765 67.351682 65.112349 75.792172 Q 59.944702 79.065022 56.32735 79.065022 Q 49.437154 79.065022 43.924997 61.667272 Q 43.063723 58.911192 41.857939 55.982862 Q 41.168919 54.604822 39.79088 54.432572 Q 38.240586 54.432572 37.551567 55.810612 Q 37.379312 55.810612 37.207057 56.327372 Q 37.034802 56.671882 31.178136 67.351682 Q 21.876372 84.404922 17.225489 91.122862 Q 13.780392 96.979532 10.507549 96.979532 Z M 95.429235 188.619132 Q 93.878945 188.619132 92.156395 187.757852 Q 84.921685 183.795992 84.921685 177.939322 Q 84.921685 175.527762 86.299725 172.599422 Q 102.319435 137.976192 122.817765 105.592272 Q 129.707955 93.534432 133.497565 80.615312 Q 138.492955 67.007172 150.550795 31.178135 Q 153.823645 21.704116 154.684915 16.19196 Q 154.684915 14.297156 152.962365 14.297156 Q 151.067565 14.297156 149.000505 18.431273 Q 136.081385 36.518037 122.473255 61.839532 Q 115.755315 74.586392 106.109035 84.749432 Q 99.563355 91.984132 95.773745 91.984132 Q 94.395705 91.984132 93.017665 91.467372 Q 81.304335 86.127472 81.304335 68.557472 Q 81.304335 65.629142 81.648845 62.700802 Q 83.371395 41.513452 92.845415 22.048626 Q 94.567965 17.914509 96.807275 17.914509 L 98.185315 18.086763 Q 104.903255 20.842842 104.903255 29.455586 Q 104.903255 31.6949 101.974925 31.6949 Q 100.252375 31.6949 99.563355 34.278723 Q 91.467375 54.432572 90.433845 76.825702 L 90.433845 77.859232 Q 90.433845 78.376002 90.433845 78.892762 Q 90.433845 79.409532 90.950605 79.754042 Q 91.639625 80.098552 92.156395 80.098552 Q 94.740215 79.754042 95.429235 78.203742 Q 105.936785 69.418742 112.654725 57.360902 Q 116.272075 51.331982 119.717175 45.130802 Q 128.674425 28.766567 139.526485 13.608136 Q 139.698745 13.608136 139.698745 13.435881 Q 149.000505 0 155.201685 0 Q 158.991285 0 161.919625 4.995392 Q 163.642175 8.612744 163.642175 12.746862 Q 163.642175 16.708724 162.608645 23.59892 Q 158.991285 44.269532 151.239815 67.007172 Q 137.287175 113.343742 119.717175 153.134622 Q 113.171485 169.154322 102.663945 182.934722 Q 98.874335 188.619132 95.429235 188.619132 Z"/>
  </clipPath>
  <g clip-path="url(#clip0_novcky_1)">
    <!-- 这里继续和描边版共用同一条单笔路径，并略微加宽描边来覆盖尖角残留。 -->
  <!-- 选用 15 作为最终描边宽度：这是能稳定消除缺口的最小值，再继续加粗会明显改变笔画观感。 -->
    <path stroke="#000" stroke-linecap="round" stroke-linejoin="round" stroke-width="15" d="M 15.733718 32.070187 C 9.993876 43.991392 -0.286063 78.832312 7.418307 90.716262 C 9.44027 93.835132 16.319653 78.753282 26.61397 62.865372 C 50.589201 25.862785 34.77004 27.098089 53.571852 70.115032 C 57.718083 79.601252 82.420515 49.791542 82.420515 49.791542 C 88.147915 47.929162 94.247915 33.729162 99.784925 26.551111 C 95.958375 10.361814 84.022625 73.575432 87.776085 79.597122 C 94.936315 91.084322 97.050735 84.201212 101.904925 80.476842 C 110.958245 73.530702 133.926325 28.473882 147.119205 11.360612 C 157.186755 -1.698597 159.710135 12.958448 158.185475 19.658647 C 150.817925 52.035752 109.086425 182.404302 96.249395 182.322232 C 75.183675 182.187552 124.941955 116.683822 135.832945 93.430102" class="path1"/>
  </g>
</svg>
